<svg id="Layer_1" data-name="Layer 1" xmlns="http://www.w3.org/2000/svg" viewBox="0 0 500 500"><defs><style>.cls-1{fill:#1e1e1e;}.cls-2{fill:#b2b2b2;}</style></defs><title>inc</title><path class="cls-1" d="M32.17,155.77a432.55,432.55,0,0,0,7.08,62.43c7.21,38.05,23.17,90.92,58.25,126.7,26.9,27.44,61.54,41.35,102.94,41.35s75.9-14.14,103.14-41.39c63.78-63.78,65.57-178.12,66.05-189.05-24.66,15.11-90.87,25.94-168.7,25.94S56.76,170.91,32.17,155.77ZM128.46,309H110.91V233h17.55Zm116-66.79c6.72-6.49,16.52-10.94,28.38-10.94,5,0,10.83,1,18.24,4.22v20.29c-3.88-4.1-9.69-8.09-17.78-8.09-6.38,0-11.51,2.05-15.5,5.93a24.35,24.35,0,0,0-7.18,17.55c0,7.86,3.19,13.45,6.61,16.75a23.08,23.08,0,0,0,16.41,6.38c4.56,0,10.71-1.25,17.44-7.86v20.17a35.34,35.34,0,0,1-16.75,4.1c-14,0-23.48-4.79-29.86-11.05a40.72,40.72,0,0,1,0-57.44ZM202,233h17.55v76H204.25L163,259.77V309H145.44V233h15.27L202,282Z"/><path d="M427.94,155.67c-35,0-50,23-49.87,23.38,1.06-11,1.53-20,1.73-26.38.19-6,.15-9.56.14-10h0c-.2-21.5-80.26-38.92-179-38.92s-178.74,17.41-179,38.9h0a360.2,360.2,0,0,0,2,39.2c1.11,11.14,2.81,24.06,5.44,38,13.51,71.52,40.6,111.28,61,132,28.86,29.45,65.9,44.38,110.1,44.38s81.3-14.93,110.27-44.37C330.51,331.76,348.07,299,358,274c12-29,12,4.73,30.94,4.73,23.74,0,89.14-9.06,89.14-77.19C478.08,176.3,453.93,155.67,427.94,155.67ZM303.58,344.86c-27.24,27.24-61.73,41.39-103.14,41.39s-76-13.91-102.94-41.35c-35.08-35.78-51-88.65-58.25-126.7a432.55,432.55,0,0,1-7.08-62.43c24.6,15.14,90.87,26,168.77,26s144-10.82,168.7-25.94C369.15,166.74,367.36,281.09,303.58,344.86Zm54.27-194.18c-1.5.67-3.11,1.33-4.82,2a209.11,209.11,0,0,1-32,8.81c-32.6,6.63-75.25,10.28-120.08,10.28s-87.48-3.65-120.08-10.28a209.12,209.12,0,0,1-32-8.81c-1.71-.65-3.32-1.31-4.82-2-8.89-4-11.37-7-12-7.94.59-.93,3.07-4,12-7.94s21.6-7.69,36.84-10.79c32.6-6.63,75.25-10.28,120.08-10.28S288.41,117.4,321,124c15.24,3.1,28,6.83,36.84,10.79s11.37,7,12,7.94C369.22,143.68,366.74,146.71,357.85,150.69Zm69.08,93a36,36,0,1,1,36-36A36,36,0,0,1,426.94,243.67Z"/><rect class="cls-2" x="110.91" y="232.99" width="17.55" height="76.02"/><polygon class="cls-2" points="145.44 232.99 145.44 309.01 162.99 309.01 162.99 259.77 204.25 309.01 219.52 309.01 219.52 232.99 201.97 232.99 201.97 282 160.71 232.99 145.44 232.99"/><path class="cls-2" d="M274.33,310.72a35.34,35.34,0,0,0,16.75-4.1V286.44c-6.73,6.61-12.88,7.86-17.44,7.86a23.08,23.08,0,0,1-16.41-6.38c-3.42-3.3-6.61-8.89-6.61-16.75a24.35,24.35,0,0,1,7.18-17.55c4-3.87,9.12-5.93,15.5-5.93,8.09,0,13.9,4,17.78,8.09V235.5c-7.41-3.19-13.22-4.22-18.24-4.22-11.85,0-21.66,4.45-28.38,10.94a40.72,40.72,0,0,0,0,57.44C250.86,305.93,260.32,310.72,274.33,310.72Z"/></svg>