<svg xmlns="http://www.w3.org/2000/svg" xmlns:xlink="http://www.w3.org/1999/xlink" viewBox="0 0 600 120"><defs><style>.cls-1,.cls-2,.cls-3{fill:none;}.cls-2{clip-path:url(#clip-path);}.cls-2,.cls-3{clip-rule:evenodd;}.cls-3{clip-path:url(#clip-path-2);}.cls-4{fill:#fff;opacity:0.5;}.cls-5{fill:#4e595d;}.cls-6{clip-path:url(#clip-path-3);}.cls-7{fill:#f94877;}</style><clipPath id="clip-path"><rect class="cls-1" x="-2" y="12" width="600" height="100"/></clipPath><clipPath id="clip-path-2"><path class="cls-2" d="M321,29H287.06c-4.68,0-6.06,3.47-6.06,5.65V87.73c0,2.46,1.34,3.37,2.1,3.67a3.9,3.9,0,0,0,4.08-.86l16.49-18.65a.86.86,0,0,1,.7-.29h10.29c4.35,0,5.05-3.11,5.51-4.91.38-1.51,4.63-22.92,6-29.72,1.08-5.18-.26-8-5.24-8Zm-.81,37.7c.38-1.51,4.63-22.92,6-29.72l-6,29.72ZM319,38l-1.42,7.31a2,2,0,0,1-1.9,1.54l-13.21,0a2.67,2.67,0,0,0-2.77,2.57V51a2.69,2.69,0,0,0,2.7,2.66h11.21a1.75,1.75,0,0,1,1.71,2.08c-.23,1.11-1.4,6.94-1.53,7.54a1.9,1.9,0,0,1-1.84,1.42h-9.15c-1.9.06-2.31.07-3.43,1.44s-11.14,13.22-11.14,13.22-.2.08-.2,0V37.93a2.1,2.1,0,0,1,2.06-2h27.22A1.74,1.74,0,0,1,319,38Zm0,0"/></clipPath><clipPath id="clip-path-3"><path class="cls-3" d="M-2,12H598V112H-2Zm0,0"/></clipPath></defs><title>PBFoursquare</title><g id="Layer_2" data-name="Layer 2"><rect class="cls-4" width="600" height="120"/></g><g id="Layer_1" data-name="Layer 1"><path class="cls-5" d="M43.79,59.29V72h-4.1V43.3H50.55a8.64,8.64,0,0,1,6,1.89,8,8,0,0,1,0,12.22,8.64,8.64,0,0,1-6,1.89Zm6.56-3.9a4.75,4.75,0,0,0,3.77-1.27,4.06,4.06,0,0,0,0-5.66,4.75,4.75,0,0,0-3.77-1.27H43.79v8.2Z"/><path class="cls-5" d="M70.36,52.32a10,10,0,1,1-10,10A9.77,9.77,0,0,1,70.36,52.32Zm0,16.4a6.36,6.36,0,1,0-6.07-6.35A6.07,6.07,0,0,0,70.36,68.72Z"/><path class="cls-5" d="M99.68,52.73,105,65.89l5.29-13.16h4L106.44,72h-2.71L98.32,58.47,92.91,72H90.2L82.37,52.73h4l5.29,13.16L97,52.73Z"/><path class="cls-5" d="M120.09,63.18A6.21,6.21,0,0,0,126.32,69a7,7,0,0,0,5.54-2.62l2.54,2.42a10.09,10.09,0,0,1-8.12,3.61,9.79,9.79,0,0,1-10-10c0-5.78,3.94-10,9.39-10s9.27,4.35,9.27,10a7,7,0,0,1,0,.82Zm.33-3.28h10.5a5.38,5.38,0,0,0-5.08-4.18A5.6,5.6,0,0,0,120.42,59.9Z"/><path class="cls-5" d="M150.72,56.17A5.54,5.54,0,0,0,149.2,56,6.46,6.46,0,0,0,144,59.25V72h-3.9V52.73h3.77v2.21a7.06,7.06,0,0,1,5.78-2.62,9.85,9.85,0,0,1,1.52.12Z"/><path class="cls-5" d="M157.4,63.18A6.21,6.21,0,0,0,163.63,69a7,7,0,0,0,5.54-2.62l2.54,2.42a10.09,10.09,0,0,1-8.12,3.61,9.79,9.79,0,0,1-10-10c0-5.78,3.94-10,9.39-10s9.27,4.35,9.27,10a7,7,0,0,1,0,.82Zm.33-3.28h10.5a5.38,5.38,0,0,0-5.08-4.18A5.6,5.6,0,0,0,157.72,59.9Z"/><path class="cls-5" d="M191.55,70.24a8.84,8.84,0,0,1-5.95,2.17,9.87,9.87,0,0,1-4.84-1.27,10.08,10.08,0,0,1-4.92-8.77,10.18,10.18,0,0,1,5-8.82,9.5,9.5,0,0,1,10.62.86V42.89h3.9V72h-3.77Zm-.12-11.48A6.94,6.94,0,0,0,185.93,56a6.17,6.17,0,0,0-6.19,6.36,6.29,6.29,0,0,0,6.4,6.35A6.69,6.69,0,0,0,191.43,66Z"/><path class="cls-5" d="M216.89,72h-3.77V42.89H217V54.41a9.5,9.5,0,0,1,10.62-.86,10.18,10.18,0,0,1,5,8.82,10.08,10.08,0,0,1-4.92,8.77,9.87,9.87,0,0,1-4.84,1.27,8.84,8.84,0,0,1-5.95-2.17Zm.12-6a6.69,6.69,0,0,0,5.29,2.75,6.29,6.29,0,0,0,6.4-6.35A6.17,6.17,0,0,0,222.5,56,6.94,6.94,0,0,0,217,58.75Z"/><path class="cls-5" d="M237.76,81.84,243,70l-8.24-17.26h4.18l6,12.71,5.54-12.71h4.1L241.9,81.84Z"/><path class="cls-5" d="M366.22,55.57v3.9h-9.43V73h-4.1V44.3h16.4v3.9h-12.3v7.38Z"/><path class="cls-5" d="M380.9,53.32a10,10,0,1,1-10,10A9.77,9.77,0,0,1,380.9,53.32Zm0,16.4a6.36,6.36,0,1,0-6.07-6.35A6.07,6.07,0,0,0,380.9,69.72Z"/><path class="cls-5" d="M397.54,70.17c-1.19-1.48-1.76-3.36-1.76-6.6V53.73h3.89V64.18A5.47,5.47,0,0,0,400.78,68a4.92,4.92,0,0,0,3.73,1.68A7.33,7.33,0,0,0,409.93,67V53.73h3.9V73H410V71.24a8.68,8.68,0,0,1-12.5-1.07Z"/><path class="cls-5" d="M431.41,57.17a5.55,5.55,0,0,0-1.52-.16,6.46,6.46,0,0,0-5.21,3.24V73h-3.89V53.73h3.77v2.21a7.06,7.06,0,0,1,5.78-2.62,9.84,9.84,0,0,1,1.52.12Z"/><path class="cls-5" d="M436.74,67.88a9.39,9.39,0,0,0,5.7,2.13c1.68,0,3.36-.9,3.36-2.42,0-2.21-3.2-2.34-6-3.28-2.34-.78-4.43-2.25-4.43-5,0-4.14,3.69-6,7.13-6a9.79,9.79,0,0,1,6.4,2.13l-2,2.79a6.84,6.84,0,0,0-4.14-1.52c-1.89,0-3.48.9-3.48,2.42,0,1.31,1.52,1.76,3.44,2.25,3,.78,7,2.13,7,6.11,0,3.65-3.4,5.9-7.18,5.9a12,12,0,0,1-7.79-2.67Z"/><path class="cls-5" d="M463.35,73.41a9.88,9.88,0,0,1-4.84-1.27,10.08,10.08,0,0,1-4.92-8.77,10.19,10.19,0,0,1,5-8.82,9.17,9.17,0,0,1,4.72-1.23,9,9,0,0,1,6,2.17V53.73h3.77V82.84h-3.9V71.32A8.66,8.66,0,0,1,463.35,73.41Zm5.82-13.65A6.94,6.94,0,0,0,463.68,57a6.17,6.17,0,0,0-6.19,6.36,6.29,6.29,0,0,0,6.4,6.35A6.68,6.68,0,0,0,469.17,67Z"/><path class="cls-5" d="M481.39,70.17c-1.19-1.48-1.76-3.36-1.76-6.6V53.73h3.89V64.18A5.47,5.47,0,0,0,484.63,68a4.92,4.92,0,0,0,3.73,1.68A7.33,7.33,0,0,0,493.77,67V53.73h3.9V73h-3.77V71.24a8.68,8.68,0,0,1-12.5-1.07Z"/><path class="cls-5" d="M518.7,71.24a8.83,8.83,0,0,1-5.94,2.17,9.88,9.88,0,0,1-4.84-1.27A10.08,10.08,0,0,1,503,63.37a10.19,10.19,0,0,1,5-8.82,9.17,9.17,0,0,1,4.72-1.23,9,9,0,0,1,6,2.17V53.73h3.77V73H518.7Zm-.12-11.48A6.94,6.94,0,0,0,513.08,57a6.17,6.17,0,0,0-6.19,6.36,6.29,6.29,0,0,0,6.4,6.35A6.68,6.68,0,0,0,518.58,67Z"/><path class="cls-5" d="M540.06,57.17a5.55,5.55,0,0,0-1.52-.16,6.46,6.46,0,0,0-5.21,3.24V73h-3.89V53.73h3.77v2.21A7.06,7.06,0,0,1,539,53.32a9.84,9.84,0,0,1,1.52.12Z"/><path class="cls-5" d="M546.33,64.18A6.21,6.21,0,0,0,552.56,70a7,7,0,0,0,5.54-2.62l2.54,2.42a10.09,10.09,0,0,1-8.12,3.61,9.79,9.79,0,0,1-10-10c0-5.78,3.94-10,9.39-10s9.27,4.35,9.27,10a7,7,0,0,1,0,.82Zm.33-3.28h10.5a5.38,5.38,0,0,0-5.08-4.18A5.6,5.6,0,0,0,546.66,60.9Z"/><g class="cls-6"><rect class="cls-7" x="276" y="24" width="55.56" height="72.63"/></g></g></svg>